# xmcd
#
# Track frame offsets:
# 150
# 38870
# 43725
# 76272
# 81717
# 112285
# 126117
# 153382
# 190135
# 232447
# 253902
# 303980
# 343470
#
# Disc length: 4738 seconds
#
#
# Revision: 92
# Processed by: cddbd v1.5.2PL0 Copyright (c) Steve Scherf et al.
# Submitted via: FreeRIP 2.96 
#
DISCID=c612800d
DTITLE=Tool - Lateralus - Tool - Lateralus
DYEAR=2001
DGENRE=Progressive Rock
TTITLE0=The Grudge
TTITLE1=Eon Blue Apocalypse
TTITLE2=The Patient
TTITLE3=Mantra
TTITLE4=Schism
TTITLE5=Parabol
TTITLE6=Parabola
TTITLE7=Ticks and Leeches
TTITLE8=Lateralus
TTITLE9=Disposition
TTITLE10=Reflection
TTITLE11=Triad
TTITLE12=Faaip De Oiad
EXTD=YEAR: 2001
EXTT0=
EXTT1=
EXTT2=
EXTT3=
EXTT4=
EXTT5=
EXTT6=
EXTT7=
EXTT8=
EXTT9=
EXTT10=
EXTT11=
EXTT12=
PLAYORDER=
